<?xml version="1.0" encoding="utf-8"?>
<!-- Generator: Adobe Illustrator 19.1.0, SVG Export Plug-In . SVG Version: 6.00 Build 0)  -->
<svg version="1.1" id="Слой_1" xmlns="http://www.w3.org/2000/svg" xmlns:xlink="http://www.w3.org/1999/xlink" x="0px" y="0px"
	 viewBox="0 0 40 40" style="enable-background:new 0 0 40 40;" xml:space="preserve">
<style type="text/css">
	.st0{fill:#FFFFFF;}
</style>
<g>
	<g>
		<path class="st0" d="M19.5,1.9c-9.9,0-18,7.6-18.7,17.3l10.1,4.2c0.9-0.6,1.9-0.9,3-0.9c0.1,0,0.2,0,0.3,0l4.5-6.5
			c0,0,0-0.1,0-0.1c0-3.9,3.2-7.1,7.1-7.1c3.9,0,7.1,3.2,7.1,7.1c0,3.9-3.2,7.1-7.1,7.1c-0.1,0-0.1,0-0.2,0l-6.4,4.6
			c0,0.1,0,0.2,0,0.3c0,2.9-2.4,5.3-5.3,5.3c-2.6,0-4.7-1.8-5.2-4.3l-7.2-3c2.2,7.9,9.5,13.7,18.1,13.7c10.4,0,18.8-8.4,18.8-18.8
			C38.3,10.4,29.9,1.9,19.5,1.9z"/>
		<path class="st0" d="M12.6,30.4l-2.3-1c0.4,0.9,1.1,1.6,2.1,2c2,0.8,4.4-0.1,5.2-2.1c0.4-1,0.4-2.1,0-3.1c-0.4-1-1.2-1.8-2.2-2.2
			c-1-0.4-2-0.4-2.9,0l2.4,1c1.5,0.6,2.2,2.3,1.6,3.8C15.8,30.4,14.1,31.1,12.6,30.4z"/>
		<path class="st0" d="M30.5,15.9c0-2.6-2.1-4.7-4.7-4.7S21,13.3,21,15.9c0,2.6,2.1,4.7,4.7,4.7S30.5,18.5,30.5,15.9z M22.2,15.9
			c0-2,1.6-3.5,3.5-3.5c2,0,3.5,1.6,3.5,3.5s-1.6,3.5-3.5,3.5C23.8,19.4,22.2,17.8,22.2,15.9z"/>
	</g>
</g>
</svg>
