<?xml version="1.0" encoding="utf-8"?>
<!-- Generated by IcoMoon.io -->
<!DOCTYPE svg PUBLIC "-//W3C//DTD SVG 1.1//EN" "http://www.w3.org/Graphics/SVG/1.1/DTD/svg11.dtd">
<svg version="1.1" xmlns="http://www.w3.org/2000/svg" xmlns:xlink="http://www.w3.org/1999/xlink" width="38" height="38" viewBox="0 0 38 38">
<path fill="#ffffff" d="M16.625 28.5h4.75v-4.75h-4.75v4.75zM19 9.5c-3.563 0-7.125 3.563-7.125 7.125h4.75c0-1.188 1.188-2.375 2.375-2.375s2.375 1.188 2.375 2.375c0 2.375-4.75 2.375-4.75 4.75h4.75c2.375-0.816 4.75-2.375 4.75-5.938s-3.563-5.938-7.125-5.938zM19 0c-10.502 0-19 8.498-19 19s8.498 19 19 19 19-8.498 19-19-8.498-19-19-19zM19 33.25c-7.867 0-14.25-6.383-14.25-14.25s6.383-14.25 14.25-14.25 14.25 6.383 14.25 14.25-6.383 14.25-14.25 14.25z"></path>
</svg>
