<?xml version="1.0" encoding="utf-8"?>
<!-- Generated by IcoMoon.io -->
<!DOCTYPE svg PUBLIC "-//W3C//DTD SVG 1.1//EN" "http://www.w3.org/Graphics/SVG/1.1/DTD/svg11.dtd">
<svg version="1.1" xmlns="http://www.w3.org/2000/svg" xmlns:xlink="http://www.w3.org/1999/xlink" width="38" height="38" viewBox="0 0 38 38">
<path fill="#ffffff" d="M19 29.179v-4.071q0-0.297-0.191-0.488t-0.488-0.191h-4.071q-0.297 0-0.488 0.191t-0.191 0.488v4.071q0 0.297 0.191 0.488t0.488 0.191h4.071q0.297 0 0.488-0.191t0.191-0.488zM24.429 14.929q0-1.866-1.177-3.456t-2.937-2.46-3.605-0.869q-5.153 0-7.867 4.517-0.318 0.509 0.17 0.891l2.799 2.121q0.148 0.127 0.403 0.127 0.339 0 0.53-0.254 1.124-1.442 1.824-1.951 0.721-0.509 1.824-0.509 1.018 0 1.813 0.551t0.795 1.251q0 0.806-0.424 1.294t-1.442 0.954q-1.336 0.594-2.449 1.834t-1.113 2.661v0.763q0 0.297 0.191 0.488t0.488 0.191h4.071q0.297 0 0.488-0.191t0.191-0.488q0-0.403 0.456-1.050t1.156-1.050q0.679-0.382 1.039-0.604t0.975-0.742 0.944-1.018 0.594-1.283 0.265-1.718zM32.571 19q0 4.432-2.184 8.175t-5.927 5.927-8.175 2.184-8.175-2.184-5.927-5.927-2.184-8.175 2.184-8.175 5.927-5.927 8.175-2.184 8.175 2.184 5.927 5.927 2.184 8.175z"></path>
</svg>
